<svg width="33" height="32" viewBox="0 0 33 32" fill="none" xmlns="http://www.w3.org/2000/svg">
<path fill-rule="evenodd" clip-rule="evenodd" d="M32.5942 2.75874V31.2361L25.17 26.386L24.672 26.0301H2.80672C1.26755 26.0301 0 24.7842 0 23.2713V2.75874C0 1.24588 1.26755 0 2.80672 0H29.7875C31.3266 0 32.5942 1.24588 32.5942 2.75874ZM5.56767 15.2838C4.4631 15.2838 3.56767 16.1793 3.56767 17.2838C3.56767 18.3884 4.4631 19.2838 5.56767 19.2838H18.5677C19.6722 19.2838 20.5677 18.3884 20.5677 17.2838C20.5677 16.1793 19.6722 15.2838 18.5677 15.2838H5.56767Z" fill="#03BBFF"/>
<rect x="3.56763" y="8.28381" width="12" height="4" rx="2" fill="#0B00BB"/>
</svg>
