<svg width="32" height="26" viewBox="0 0 32 26" fill="none" xmlns="http://www.w3.org/2000/svg">
<path d="M0.87637 0.00133442C0.635664 0.0254484 0.412554 0.138414 0.250704 0.31786C0.088637 0.497524 -0.000647161 0.730844 3.53171e-06 0.972835V19.8312C0.00108974 20.0893 0.104498 20.3365 0.287855 20.5184C0.470994 20.7002 0.718869 20.8016 0.977199 20.8008H30.1749C30.4317 20.7997 30.6776 20.6971 30.8593 20.5157C31.0409 20.3341 31.1432 20.088 31.1443 19.8312V0.972785C31.1439 0.715567 31.0415 0.468993 30.8599 0.287166C30.6783 0.105117 30.432 0.00235781 30.175 0.00127332H0.977238C0.943565 -0.000464638 0.909828 -0.000403537 0.87637 0.00133442ZM14.5342 4.03318C14.592 4.03253 14.65 4.03687 14.7072 4.04643H19.7996C20.0577 4.04556 20.3056 4.14702 20.4889 4.32885C20.6721 4.51068 20.7757 4.75791 20.7768 5.01597V15.7863C20.7757 16.0444 20.6721 16.2916 20.4889 16.4734C20.3056 16.6553 20.0577 16.7567 19.7996 16.7559H14.6216C14.5679 16.7602 14.5138 16.7602 14.4599 16.7559H11.3444C11.0876 16.7548 10.8417 16.6522 10.6601 16.4708C10.4785 16.2892 10.3759 16.0431 10.375 15.7863V5.01592C10.3746 4.77434 10.4643 4.54146 10.6262 4.36222C10.7882 4.18299 11.0109 4.07046 11.2512 4.04635C11.2822 4.04483 11.3133 4.04483 11.3444 4.04635H14.3897C14.4373 4.03831 14.4858 4.03405 14.5342 4.03318Z" fill="#0B00BB"/>
<path d="M12.4396 5.99294V14.8095H13.6902V5.99294H12.4396ZM15.6368 5.99294V14.8095H18.9482V5.99294H15.6368Z" fill="#03BBFF"/>
<path d="M12.2959 22.0801V24.057H9.62897C9.59529 24.0553 9.56162 24.0553 9.52817 24.057C9.19991 24.0983 8.9149 24.3034 8.77169 24.6016C8.62853 24.8999 8.64678 25.2505 8.82014 25.5325C8.9935 25.8143 9.29808 25.9889 9.62894 25.9959H21.3842C21.6562 26.0202 21.9263 25.9292 22.1279 25.7448C22.3297 25.5603 22.4446 25.2996 22.4446 25.0263C22.4446 24.753 22.3297 24.4923 22.1279 24.3081C21.9263 24.1237 21.6562 24.0324 21.3842 24.057H18.7171V22.08L12.2959 22.0801Z" fill="#03BBFF"/>
</svg>
