<svg width="29" height="44" viewBox="0 0 29 44" fill="none" xmlns="http://www.w3.org/2000/svg">
<path d="M14.1526 0.589722C6.33556 0.589722 0 6.92529 0 14.7423C0 22.5594 6.33556 28.895 14.1526 28.895C21.9697 28.895 28.3052 22.5594 28.3052 14.7423C28.3052 6.92529 21.9697 0.589722 14.1526 0.589722ZM14.1526 4.00587C20.0699 4.00587 24.8891 8.82508 24.8891 14.7423C24.8891 20.6596 20.0699 25.4788 14.1526 25.4788C8.23536 25.4788 3.41615 20.6596 3.41615 14.7423C3.41615 8.82508 8.23536 4.00587 14.1526 4.00587ZM14.1526 5.95796C9.28984 5.95796 5.36824 9.87956 5.36824 14.7423C5.36824 19.6051 9.28984 23.5267 14.1526 23.5267C19.0154 23.5267 22.937 19.6051 22.937 14.7423C22.937 9.87956 19.0154 5.95796 14.1526 5.95796Z" fill="#9898D0"/>
<path d="M9.13297 29.3743V43.6925L12.5491 41.2524V30.603C11.3465 30.3329 10.2049 29.9146 9.13297 29.3743Z" fill="#D0D0F3"/>
<path d="M19.3117 29.3743C18.2398 29.9146 17.0982 30.3329 15.8955 30.6118V41.2524L19.3117 43.6925V29.3743V29.3743Z" fill="#D0D0F3"/>
</svg>
