<svg width="27" height="30" viewBox="0 0 27 30" fill="none" xmlns="http://www.w3.org/2000/svg">
<path fill-rule="evenodd" clip-rule="evenodd" d="M26.5493 25.0658L24.2796 21.2171C20.5296 15 25.7599 6.01974 15.9901 3.05921V2.66447C15.9901 -0.888158 10.6612 -0.888158 10.6612 2.66447V3.05921C0.891451 6.01974 6.12171 15 2.37171 21.2171L0.101977 25.0658C-0.194075 25.4605 0.200662 26.0526 0.694083 26.0526H26.0559C26.5493 26.0526 26.8454 25.4605 26.5493 25.0658ZM10.8586 5.03289C11.648 4.93421 11.9441 6.2171 11.0559 6.31579C9.27961 6.71053 7.89803 8.0921 7.60198 9.76974C7.50329 10.6579 6.2204 10.4605 6.31908 9.57237C6.71382 7.30263 8.49013 5.42763 10.8586 5.03289Z" fill="#93A0BC"/>
<path fill-rule="evenodd" clip-rule="evenodd" d="M9.18091 27.3355C10.8585 30.8882 15.8914 30.8882 17.5691 27.3355H9.18091Z" fill="#B9C5E0"/>
</svg>
