<svg width="38" height="27" viewBox="0 0 38 27" fill="none" xmlns="http://www.w3.org/2000/svg">
<path fill-rule="evenodd" clip-rule="evenodd" d="M3.0315 26.172C1.31365 26.172 0 24.8583 0 23.1405V9.09451H37.9948V22.9384C37.9948 24.7573 36.5801 26.172 34.7612 26.172H9.19555H8.18505H3.0315ZM19.7048 19.1995C18.8964 19.1995 18.189 19.9069 18.189 20.7153C18.189 21.5237 18.8964 22.231 19.7048 22.231H33.8518C34.6602 22.231 35.3675 21.5237 35.3675 20.7153C35.3675 19.9069 34.6602 19.1995 33.8518 19.1995H19.7048Z" fill="#93A0BC"/>
<path fill-rule="evenodd" clip-rule="evenodd" d="M0 3.2336V5.0525H37.9948V3.2336C37.9948 1.4147 36.5801 0 34.7612 0H3.2336C1.4147 0 0 1.4147 0 3.2336Z" fill="#B9C5E0"/>
</svg>
