<svg width="44" height="38" viewBox="0 0 44 38" fill="none" xmlns="http://www.w3.org/2000/svg">
<path d="M14.1361 9.77849C14.3766 9.97087 14.7132 9.97087 14.9537 9.7304C16.8294 7.90282 19.2341 6.84475 21.8793 6.70047C27.1696 6.46 31.7867 10.2113 32.7004 15.3093C32.7485 15.646 32.5081 15.9826 32.1233 15.9826L29.8148 16.0788C29.2858 16.0788 29.0453 16.7521 29.43 17.0888L36.1632 23.1968C36.4037 23.4372 36.7884 23.3891 36.9808 23.1487L43.0888 16.4155C43.4254 16.0307 43.1369 15.4055 42.6078 15.4536L39.4817 15.5979C38.6641 6.50809 30.7767 -0.36937 21.5426 0.0153834C17.166 0.255854 13.078 2.08343 10 5.20955C9.75955 5.45002 9.80764 5.83477 10.0481 6.07524L14.1361 9.77849Z" fill="#B9C5E0"/>
<path d="M0.573609 20.4073H3.50735C3.79592 20.4073 4.03639 20.6478 4.08448 20.9363C4.56542 24.9762 6.393 28.7757 9.32674 31.7094C12.7895 35.1722 17.4546 37.096 22.3122 37.096C27.0254 37.1441 31.45 35.3646 34.8647 32.1423C35.1052 31.9018 35.1052 31.517 34.8647 31.2766L30.2958 26.7076C28.1796 28.8238 25.3421 29.978 22.3122 29.978C19.3303 29.978 16.4928 28.7757 14.3766 26.6595C12.8376 25.1205 11.8276 23.1968 11.3948 21.1287C11.2986 20.7921 11.5872 20.4554 11.9719 20.4554H14.4728C15.0018 20.4554 15.2423 19.8302 14.9057 19.4454L7.98011 12.4718C7.73963 12.2313 7.35488 12.2313 7.1625 12.4718L0.188856 19.3973C-0.195897 19.7821 0.0445734 20.4073 0.573609 20.4073Z" fill="#93A0BC"/>
</svg>
