<svg width="44" height="26" viewBox="0 0 44 26" fill="none" xmlns="http://www.w3.org/2000/svg">
<path d="M23.5167 7.36666L18.5334 18.2L15.5 24.9167C5.75004 21.8833 0.333374 13 0.333374 13C0.333374 13 8.13337 0 22 0C23.7334 0 25.25 0.216667 26.55 0.433333L23.5167 7.36666Z" fill="#93A0BC"/>
<path d="M43.6664 13C43.6664 13 35.8664 26 21.9998 26C21.1331 26 20.4831 26 19.6165 25.7833L22.8665 18.4167L27.6331 8.23333L30.6665 1.73334C39.1164 5.41667 43.6664 13 43.6664 13Z" fill="#93A0BC"/>
<path d="M23.517 7.36667L18.5336 18.2C15.5003 17.7667 13.5503 16.25 13.5503 13C13.5503 8.45 17.2336 7.36667 22.0003 7.36667C22.4336 7.36667 22.867 7.36667 23.517 7.36667Z" fill="#B9C5E0"/>
<path d="M30.45 13C30.45 17.3333 27.2 18.4167 23.0834 18.6333L27.85 8.45C29.3667 9.1 30.45 10.6167 30.45 13Z" fill="#B9C5E0"/>
</svg>
