<svg width="32" height="37" viewBox="0 0 32 37" fill="none" xmlns="http://www.w3.org/2000/svg">
<path d="M27.2722 9.09072C26.711 8.52957 26.1499 8.08064 25.5887 7.63172C23.6808 6.28495 21.7728 5.3871 19.8649 4.93817V10.7742C21.0995 11.3353 22.334 12.0087 23.3441 13.0188C27.3844 17.0591 27.3844 23.6808 23.3441 27.7211C19.3038 31.7614 12.6821 31.7614 8.6418 27.7211C4.48925 23.6808 4.48925 17.0591 8.6418 13.0188C9.65188 12.0087 10.8864 11.2231 12.121 10.7742V4.93817C10.4375 5.3871 8.75403 6.06048 7.18279 7.07056C6.28494 7.63172 5.49933 8.30511 4.71371 9.09072C-1.57124 15.2634 -1.57124 25.3642 4.71371 31.6492C10.9987 37.9341 21.0995 37.9341 27.3844 31.6492C33.5571 25.4765 33.5571 15.2634 27.2722 9.09072Z" fill="#93A0BC"/>
<path d="M18.8548 0H13.2433V12.121H18.8548V0Z" fill="#B9C5E0"/>
</svg>
