<svg width="30" height="30" viewBox="0 0 30 30" fill="none" xmlns="http://www.w3.org/2000/svg">
<path d="M29 11H25.2L25 10.6L27.7 8C28.1 7.6 28.1 7 27.7 6.6L23.5 2.4C23.1 2 22.5 2 22.1 2.4L19.5 5.1L19 4.8V1C19 0.4 18.6 0 18 0H12C11.4 0 11 0.4 11 1V4.8L10.6 5L7.9 2.3C7.5 1.9 6.9 1.9 6.5 2.3L2.3 6.5C1.9 6.9 1.9 7.5 2.3 7.9L5 10.5L4.8 11H1C0.4 11 0 11.4 0 12V18C0 18.6 0.4 19 1 19H4.8L5 19.4L2.3 22C1.9 22.4 1.9 23 2.3 23.4L6.5 27.6C6.9 28 7.5 28 7.9 27.6L10.6 24.9L11 25.1V29C11 29.6 11.4 30 12 30H18C18.6 30 19 29.6 19 29V25.2L19.4 25L22 27.7C22.4 28.1 23 28.1 23.4 27.7L27.6 23.5C28 23.1 28 22.5 27.6 22.1L24.9 19.5L25.1 19.1H29C29.6 19.1 30 18.7 30 18.1V12.1C30 11.4 29.6 11 29 11Z" fill="#93A0BC"/>
<path d="M15 20.6L22.6 28.2C23 28.6 23.6 28.6 24 28.2L28.2 24C28.6 23.6 28.6 23 28.2 22.6L20.6 15C20.6 12 17.7 10 15 10H14.8L13.7 11.1L16.1 13.5L15.7 15.6L13.6 16L11.2 13.6L10 14.8V15C10 17.7 12 20.6 15 20.6Z" fill="#B9C5E0"/>
</svg>
