<svg width="32" height="44" viewBox="0 0 32 44" fill="none" xmlns="http://www.w3.org/2000/svg">
<path d="M22.9757 39.8632L21.1547 43.0758C20.94 43.4495 20.5344 43.6563 20.105 43.6165C19.6756 43.5767 19.3178 43.2905 19.1746 42.8929L16.7095 35.7679C18.451 35.4975 20.0096 34.5354 21.0275 33.0961C21.0672 33.0404 21.1308 33.0086 21.2024 33.0086H21.266C23.0393 33.6129 24.9955 33.4062 26.6097 32.4599L29.043 39.4894C29.1782 39.895 29.0669 40.3403 28.7568 40.6345C28.4466 40.9287 27.9934 41.0162 27.5958 40.8492L24.1764 39.4497C23.7311 39.2668 23.2142 39.4417 22.9757 39.8632ZM3.82737 40.8492L7.26261 39.4417C7.72383 39.2509 8.25661 39.4497 8.49517 39.887L10.3082 43.0917C10.5229 43.4654 10.9285 43.6722 11.3579 43.6324C11.7873 43.5926 12.1451 43.3064 12.2883 42.9088L14.7534 35.7838C13.0119 35.5135 11.4533 34.5513 10.4354 33.112C10.3957 33.0563 10.3321 33.0245 10.2605 33.0245H10.1969C8.4236 33.6288 6.46742 33.4221 4.85317 32.4758L2.39601 39.4894C2.26083 39.895 2.37216 40.3403 2.68228 40.6345C2.99241 40.9287 3.44567 41.0162 3.84327 40.8492H3.82737ZM15.7235 22.7188C17.4173 22.7188 19.0474 22.0428 20.2402 20.85C21.441 19.6493 22.1089 18.0271 22.1089 16.3333C22.1089 14.6396 21.433 13.0094 20.2323 11.8166C19.0395 10.6159 17.4173 9.93995 15.7235 9.93995C14.0297 9.93995 12.3996 10.6159 11.2068 11.8166C10.006 13.0174 9.33807 14.6396 9.33807 16.3333C9.33807 18.0271 10.014 19.6493 11.2147 20.85C12.4075 22.0508 14.0297 22.7188 15.7235 22.7188ZM0.670437 18.3452C1.09984 17.7647 1.33045 17.0649 1.33045 16.3413C1.33045 15.6177 1.09984 14.9179 0.670437 14.3374C0.0183762 13.4627 -0.172471 12.3255 0.161512 11.2838C0.495494 10.2421 1.31455 9.43898 2.35625 9.11295C3.04807 8.89824 3.65242 8.46884 4.07388 7.88039C4.49533 7.29195 4.72594 6.59218 4.71798 5.86855C4.71003 4.77913 5.22691 3.75333 6.10958 3.11717C6.99225 2.48101 8.12938 2.30607 9.16313 2.65595C9.50506 2.77523 9.87086 2.8309 10.2366 2.8309C11.3261 2.8309 12.3519 2.30607 12.9801 1.41545C13.6083 0.524829 14.6341 0 15.7235 0C16.8129 0 17.8387 0.524829 18.4669 1.41545C19.0951 2.30607 20.1209 2.8309 21.2104 2.8309C21.5761 2.8309 21.934 2.76728 22.2839 2.65595C23.3176 2.29812 24.4627 2.46511 25.3454 3.10922C26.228 3.75333 26.7529 4.78708 26.737 5.8765C26.729 6.59218 26.9596 7.2999 27.3811 7.88039C27.8025 8.46089 28.3989 8.89029 29.0828 9.11295C30.1245 9.43898 30.9356 10.2501 31.2775 11.2838C31.6115 12.3176 31.4286 13.4547 30.7766 14.3294C30.3472 14.9099 30.1165 15.6097 30.1165 16.3333C30.1165 17.057 30.3472 17.7567 30.7766 18.3372C31.4286 19.2119 31.6195 20.3491 31.2855 21.3908C30.9515 22.4325 30.1324 23.2436 29.0907 23.5617C28.3989 23.7764 27.7946 24.2058 27.3731 24.7942C26.9517 25.3827 26.7211 26.0824 26.729 26.8061C26.7449 27.9034 26.228 28.9372 25.3374 29.5733C24.4548 30.2174 23.3097 30.3844 22.2759 30.0266C21.592 29.796 20.8525 29.796 20.1607 30.0187C19.4768 30.2413 18.8725 30.6787 18.459 31.2751C17.8308 32.1657 16.805 32.6905 15.7155 32.6905C14.6261 32.6905 13.6003 32.1657 12.9721 31.2751C12.5507 30.6866 11.9543 30.2493 11.2704 30.0187C10.5865 29.796 9.83905 29.796 9.15518 30.0266C8.12142 30.3844 6.97634 30.2174 6.09367 29.5733C5.21101 28.9292 4.68618 27.8955 4.70208 26.8061C4.71003 26.0904 4.48738 25.3827 4.07388 24.8022C3.66037 24.2217 3.04807 23.7764 2.3642 23.5617C1.3225 23.2356 0.511398 22.4245 0.169464 21.3908C-0.164519 20.3491 0.0183762 19.2199 0.670437 18.3452ZM6.18115 16.3333C6.18115 18.862 7.18309 21.2874 8.97228 23.0766C10.7615 24.8658 13.1868 25.8677 15.7155 25.8677C18.2443 25.8677 20.6696 24.8658 22.4588 23.0766C24.248 21.2874 25.2499 18.862 25.2499 16.3333C25.2499 13.8046 24.248 11.3793 22.4588 9.59006C20.6696 7.80087 18.2443 6.79893 15.7155 6.79893C13.1868 6.79893 10.7615 7.80882 8.97228 9.59802C7.19104 11.3872 6.1891 13.8046 6.18115 16.3333Z" fill="#9898D0"/>
</svg>
