<svg width="30" height="30" viewBox="0 0 30 30" fill="none" xmlns="http://www.w3.org/2000/svg">
<path d="M15.0001 0C6.72924 0 0 6.72906 0 15C0 23.2709 6.72924 30 15.0001 30C23.2708 30 30 23.2709 30 15C30 6.72906 23.2708 0 15.0001 0ZM6.27303 9.18894L7.88145 7.38746C8.40118 6.80575 9.09946 6.48523 9.84778 6.48523C10.5967 6.48523 11.295 6.80575 11.8147 7.38746L13.4236 9.18894C13.6349 9.42574 13.6147 9.78951 13.3776 10.001C13.268 10.0991 13.1309 10.1474 12.9944 10.1474C12.8365 10.1474 12.6792 10.0825 12.5652 9.95524L10.9562 8.15384C10.3596 7.4861 9.3371 7.48501 8.73991 8.15384L7.13149 9.95524C6.92022 10.1926 6.55508 10.212 6.31913 10.0013C6.08205 9.78951 6.06126 9.42602 6.27303 9.18894ZM15.0001 24.5061C10.4276 24.5061 6.70789 20.7861 6.70789 16.2135C6.70789 15.8958 6.96523 15.6382 7.28317 15.6382H22.7169C23.0349 15.6382 23.2921 15.8958 23.2921 16.2135C23.2921 20.7861 19.5725 24.5061 15.0001 24.5061ZM23.6815 10.001C23.572 10.0991 23.4349 10.1474 23.2984 10.1474C23.1405 10.1474 22.9832 10.0825 22.8691 9.95524L21.2601 8.15384C20.6635 7.48557 19.6405 7.48666 19.0439 8.15384L17.4348 9.95524C17.2225 10.1926 16.8584 10.2126 16.6225 10.001C16.3854 9.78951 16.3652 9.42574 16.5764 9.18894L18.1854 7.38746C18.7051 6.80575 19.4034 6.48523 20.1523 6.48523C20.9006 6.48523 21.5989 6.80575 22.1185 7.38746L23.7276 9.18894C23.9387 9.42574 23.9185 9.78951 23.6815 10.001Z" fill="#0B00BB"/>
</svg>
