<svg width="30" height="31" viewBox="0 0 30 31" fill="none" xmlns="http://www.w3.org/2000/svg">
<path d="M24.3609 0.969925H5.6391C2.4812 0.969925 0 3.45113 0 6.60902V25.3308C0 26.0075 0 26.6842 0.451128 27.1353V27.3609C1.35338 29.391 3.38346 30.7444 5.6391 30.7444H24.3609C27.5188 30.7444 30 28.2632 30 25.1053V6.60902C30 3.45113 27.5188 0.969925 24.3609 0.969925ZM27.7444 25.3308C27.7444 27.1353 26.1654 28.7143 24.3609 28.7143H5.6391C4.51128 28.7143 3.38346 28.0376 2.70677 27.1353L16.015 16.7594C17.1429 15.6316 18.9474 15.6316 20.3008 16.7594L27.9699 22.8496V25.3308H27.7444Z" fill="#0B00BB"/>
<path d="M12.6314 10.4436C12.6314 12.4736 11.0524 14.0526 9.02235 14.0526C6.99228 14.0526 5.41333 12.4736 5.41333 10.4436C5.41333 8.4135 6.99228 6.83455 9.02235 6.83455C11.0524 6.83455 12.6314 8.4135 12.6314 10.4436Z" fill="#03BBFF"/>
</svg>
