<svg width="29" height="44" viewBox="0 0 29 44" fill="none" xmlns="http://www.w3.org/2000/svg">
<path fill-rule="evenodd" clip-rule="evenodd" d="M14.2276 4.4892C8.8547 4.4892 4.49805 8.84585 4.49805 14.2188C4.49805 19.5917 8.8547 23.9483 14.2276 23.9483C19.6005 23.9483 23.9484 19.6005 23.9484 14.2276C23.9484 8.84585 19.6005 4.4892 14.2276 4.4892ZM17.568 19.0084L14.2276 17.4973L10.8872 19.0084L11.223 15.2085L8.81936 12.3365L12.3718 11.497L14.2276 8.21842L16.0834 11.497L19.6359 12.3365L17.2322 15.2085L17.568 19.0084Z" fill="#EA2662"/>
<path fill-rule="evenodd" clip-rule="evenodd" d="M14.2276 0C6.3715 0 0 6.3715 0 14.2276C0 22.0837 6.3715 28.4552 14.2276 28.4552C22.0837 28.4552 28.4552 22.0926 28.4552 14.2276C28.4464 6.3715 22.0749 0 14.2276 0ZM14.2276 26.0251C7.70589 26.0251 2.43018 20.7405 2.43018 14.2276C2.43018 7.71473 7.70589 2.42135 14.2276 2.42135C20.7494 2.42135 26.0251 7.70589 26.0251 14.2188C26.0251 20.7317 20.7405 26.0251 14.2276 26.0251Z" fill="#0B00BB"/>
<path fill-rule="evenodd" clip-rule="evenodd" d="M21.0763 29.012V37.9815C21.0763 39.1569 20.5284 40.1731 19.5387 40.8182L16.0657 43.0805C14.9169 43.8228 13.5295 43.8228 12.3807 43.0805L8.90775 40.8182C7.918 40.1731 7.3701 39.1657 7.3701 37.9815V29.012C9.45564 29.984 11.7798 30.5231 14.2276 30.5231C16.6755 30.5231 18.9996 29.9752 21.0763 29.012Z" fill="#0B00BB"/>
</svg>
