<svg width="34" height="44" viewBox="0 0 34 44" fill="none" xmlns="http://www.w3.org/2000/svg">
<path d="M16.5158 7.47528C11.538 7.47528 7.48387 11.5294 7.48387 16.5158C7.48387 21.5022 11.538 25.5477 16.5158 25.5477C21.5022 25.5477 25.5563 21.4936 25.5563 16.5158C25.5563 11.5379 21.4936 7.47528 16.5158 7.47528ZM16.5158 21.7331C13.6335 21.7331 11.2899 19.3981 11.2899 16.5072C11.2899 13.6163 13.6249 11.2814 16.5158 11.2814C19.3982 11.2814 21.7417 13.6163 21.7417 16.5072C21.7331 19.3981 19.3982 21.7331 16.5158 21.7331Z" fill="#03BBFF"/>
<path d="M30.8164 12.6841V8.25362L26.9846 6.0384L24.7694 2.20667H20.3475L16.5158 0L12.6841 2.21522H8.25362L6.04695 6.04695L2.21522 8.25362V12.6755L0 16.5158L2.21522 20.3475V24.7694L6.04695 26.9846L8.26217 30.8164H12.6841L16.5158 33.0316L20.3475 30.8164H24.7694L26.9846 26.9846L30.8164 24.7694V20.3475L33.0316 16.5158L30.8164 12.6841ZM16.5158 28.0366C10.1609 28.0366 4.99494 22.8706 4.99494 16.5158C4.99494 10.1609 10.1609 4.99494 16.5158 4.99494C22.8706 4.99494 28.0366 10.1609 28.0366 16.5158C28.0366 22.8706 22.8706 28.0366 16.5158 28.0366Z" fill="#0B00BB"/>
<path d="M12.684 32.4072H8.74113L2.31785 38.8305L6.52591 39.4292L7.12462 43.6373L16.2763 34.4856L12.684 32.4072Z" fill="#0B00BB"/>
<path d="M20.3475 32.4072L16.7467 34.4856L25.8984 43.6373L26.4971 39.4292L30.7052 38.8305L24.2819 32.4072H20.3475Z" fill="#0B00BB"/>
</svg>
