<svg width="34" height="35" viewBox="0 0 34 35" fill="none" xmlns="http://www.w3.org/2000/svg">
<path d="M25.9027 22.395L25.944 22.3537C23.8371 25.5347 20.6147 27.6003 16.2356 28.3853C18.5078 28.0548 20.656 27.2285 22.4325 25.9892L30.4884 34.0451L34 30.5335L25.9027 22.395Z" fill="#03BBFF"/>
<path d="M25.9443 22.3537C26.0269 22.2297 26.1095 22.1058 26.1921 21.9819C27.0597 20.5359 27.762 18.8834 28.1751 17.0657C28.3404 16.1568 28.4643 15.2066 28.4643 14.2151C28.5056 6.40704 22.1022 0.00360107 14.2528 0.00360107C6.40344 0.00360107 0 6.40704 0 14.2564C0 22.1058 6.40344 28.5092 14.2528 28.5092C14.9138 28.5092 15.5748 28.4679 16.2358 28.344C20.6149 27.6004 23.8373 25.5347 25.9443 22.3537ZM14.2528 23.5517C9.13006 23.5517 4.9575 19.3792 4.9575 14.2564C4.9575 9.13366 9.13006 4.9611 14.2528 4.9611C19.3756 4.9611 23.5481 9.13366 23.5481 14.2564C23.5481 19.3792 19.3756 23.5517 14.2528 23.5517Z" fill="#0B00BB"/>
</svg>
