<svg width="28" height="28" viewBox="0 0 28 28" fill="none" xmlns="http://www.w3.org/2000/svg">
<path d="M1.64003 27.2532C1.48948 27.2532 1.34117 27.2168 1.20773 27.1471C1.0743 27.0774 0.959712 26.9765 0.873741 26.8529C0.78777 26.7293 0.732969 26.5867 0.714013 26.4374C0.695057 26.2881 0.712509 26.1363 0.764879 25.9952L4.60475 15.6442C4.66138 15.4916 4.75692 15.3565 4.88189 15.2523C5.00687 15.148 5.15693 15.0782 5.31719 15.0499L11.1841 14.0132L5.32157 13.0045C5.16005 12.977 5.00867 12.9073 4.88269 12.8025C4.75672 12.6977 4.66061 12.5616 4.60406 12.4078L0.764434 2.00317C0.699631 1.8276 0.689102 1.63661 0.734214 1.45498C0.779327 1.27336 0.877998 1.10949 1.01742 0.984649C1.15684 0.85981 1.33057 0.779768 1.51605 0.754911C1.70154 0.730055 1.89021 0.761534 2.05759 0.84526L26.6965 13.1657C26.8513 13.2433 26.9814 13.3624 27.0724 13.5098C27.1633 13.6571 27.2115 13.8268 27.2115 14C27.2115 14.1731 27.1633 14.3428 27.0724 14.4902C26.9814 14.6375 26.8513 14.7567 26.6965 14.8343L2.05739 27.1547C1.92783 27.2195 1.78492 27.2533 1.64003 27.2532V27.2532Z" fill="#0B00BB"/>
</svg>
