<svg width="34" height="29" viewBox="0 0 34 29" fill="none" xmlns="http://www.w3.org/2000/svg">
<path d="M12.1491 5.67478C12.1491 3.00155 14.2981 0.80006 17.0238 0.80006C19.7494 0.80006 21.8985 3.00155 21.8985 5.67478C21.8985 8.34802 19.697 10.5495 17.0238 10.5495C14.2981 10.6019 12.1491 8.40043 12.1491 5.67478ZM17.0238 12.4365C16.552 12.4365 12.3063 12.3317 10.3669 15.7387C8.47991 19.0934 10.4717 25.4357 11.3628 27.9517C11.6249 28.5807 12.2015 29.0001 12.8829 29.0001H21.1123C21.7937 29.0001 22.3702 28.5807 22.6323 27.9517C23.5234 25.4357 25.5152 19.0934 23.6282 15.7387C21.7412 12.2792 17.4955 12.4365 17.0238 12.4365Z" fill="#0B00BB"/>
<path d="M27.874 10.6543C30.1804 10.6543 32.0149 8.81976 32.0149 6.51344C32.0149 4.20712 30.128 2.37255 27.874 2.37255C25.5677 2.37255 23.7332 4.20712 23.7332 6.51344C23.7332 8.81976 25.5677 10.6543 27.874 10.6543Z" fill="#03BBFF"/>
<path d="M27.874 12.6461C26.7208 12.6461 25.5677 12.8558 24.5718 13.38C24.9387 13.7993 25.2532 14.271 25.5153 14.7428C27.245 17.8878 26.4588 22.5528 25.5677 25.9075H32.0673C32.0673 25.9075 35.1075 18.7264 33.2205 15.3194C31.648 12.5413 28.2409 12.6461 27.874 12.6461Z" fill="#03BBFF"/>
<path d="M6.17361 2.37254C3.86729 2.37254 2.03271 4.20712 2.03271 6.51344C2.03271 8.81975 3.86729 10.6543 6.17361 10.6543C8.47993 10.6543 10.3145 8.81975 10.3145 6.51344C10.3145 4.25953 8.47993 2.37254 6.17361 2.37254Z" fill="#03BBFF"/>
<path d="M6.17371 12.6461C5.8068 12.6461 2.39973 12.5413 0.87966 15.3194C-1.00733 18.7264 2.03282 25.9599 2.03282 25.9599H8.53245C7.58895 22.6052 6.85512 17.9402 8.58486 14.7952C8.84695 14.3235 9.16144 13.8517 9.52836 13.4324C8.48003 12.9082 7.32687 12.6461 6.17371 12.6461Z" fill="#03BBFF"/>
</svg>
