<svg width="19" height="16" viewBox="0 0 19 16" fill="none" xmlns="http://www.w3.org/2000/svg">
<path d="M12.8928 13.2143V8.57147H6.74328C6.56331 8.57147 6.39072 8.49621 6.26346 8.36226C6.1362 8.2283 6.06471 8.04662 6.06471 7.85718C6.06471 7.66774 6.1362 7.48605 6.26346 7.3521C6.39072 7.21814 6.56331 7.14289 6.74328 7.14289H12.8928V2.50001C12.8921 1.83718 12.6417 1.20171 12.1964 0.733019C11.7512 0.26433 11.1475 0.000709032 10.5178 0H2.37499C1.74531 0.000709032 1.14161 0.26433 0.696363 0.733019C0.251112 1.20171 0.000673575 1.83718 0 2.50001V13.2143C0.000673575 13.8772 0.251112 14.5126 0.696363 14.9813C1.14161 15.45 1.74531 15.7136 2.37499 15.7144H10.5178C11.1475 15.7136 11.7512 15.45 12.1964 14.9813C12.6417 14.5126 12.8921 13.8772 12.8928 13.2143Z" fill="white"/>
<path d="M16.6835 8.57125L14.4494 10.9236C14.3275 11.0586 14.2605 11.2384 14.2628 11.4247C14.2651 11.611 14.3363 11.7889 14.4615 11.9207C14.5866 12.0524 14.7557 12.1274 14.9326 12.1298C15.1096 12.1322 15.2804 12.0617 15.4087 11.9334L18.8015 8.36186C18.9287 8.22792 19.0001 8.0463 19.0001 7.85693C19.0001 7.66757 18.9287 7.48595 18.8015 7.352L15.4087 3.78044C15.2804 3.65213 15.1096 3.58166 14.9326 3.58404C14.7557 3.58643 14.5866 3.66148 14.4615 3.7932C14.3363 3.92492 14.2651 4.10289 14.2628 4.28915C14.2605 4.47542 14.3275 4.65525 14.4494 4.7903L16.6835 7.14262H12.8933V8.57125H16.6835Z" fill="white"/>
</svg>
