<svg width="97" height="97" viewBox="0 0 97 97" fill="none" xmlns="http://www.w3.org/2000/svg">
<rect width="97" height="97" fill="#F0F0FE"/>
<path d="M49.0001 19C33.0099 19 20 32.0095 20 48.0001C20 63.9905 33.0099 77 49.0001 77C64.9902 77 78 63.9905 78 48.0001C78 32.0095 64.9902 19 49.0001 19ZM32.1279 36.7653L35.2375 33.2824C36.2423 32.1578 37.5923 31.5381 39.039 31.5381C40.4869 31.5381 41.8369 32.1578 42.8417 33.2824L45.9523 36.7653C46.3607 37.2231 46.3217 37.9264 45.8633 38.3353C45.6515 38.5249 45.3864 38.6183 45.1225 38.6183C44.8173 38.6183 44.5132 38.4928 44.2926 38.2468L41.1821 34.7641C40.0286 33.4731 38.0517 33.471 36.8972 34.7641L33.7875 38.2468C33.3791 38.7057 32.6732 38.7432 32.217 38.3359C31.7586 37.9264 31.7184 37.2236 32.1279 36.7653ZM49.0001 66.3784C40.1599 66.3784 32.9686 59.1864 32.9686 50.3461C32.9686 49.7319 33.4661 49.2339 34.0808 49.2339C34.0808 49.2339 36.4333 57.6667 48.0333 58.6333C59.6333 59.6 63.9193 49.2339 63.9193 49.2339C64.5341 49.2339 65.0315 49.7319 65.0315 50.3461C65.0315 59.1864 57.8401 66.3784 49.0001 66.3784ZM65.7842 38.3353C65.5724 38.5249 65.3074 38.6183 65.0435 38.6183C64.7383 38.6183 64.4341 38.4928 64.2136 38.2468L61.1029 34.7641C59.9494 33.4721 57.9716 33.4742 56.8181 34.7641L53.7074 38.2468C53.2967 38.7057 52.593 38.7443 52.1368 38.3353C51.6785 37.9264 51.6394 37.2231 52.0477 36.7653L55.1585 33.2824C56.1631 32.1578 57.5133 31.5381 58.961 31.5381C60.4078 31.5381 61.7579 32.1578 62.7625 33.2824L65.8733 36.7653C66.2816 37.2231 66.2425 37.9264 65.7842 38.3353Z" fill="#0B00BB"/>
</svg>
