<?xml version="1.0" encoding="utf-8"?>
<!-- Generator: Adobe Illustrator 23.0.1, SVG Export Plug-In . SVG Version: 6.00 Build 0)  -->
<svg version="1.1" id="Layer_1" xmlns="http://www.w3.org/2000/svg" xmlns:xlink="http://www.w3.org/1999/xlink" x="0px" y="0px"
	 viewBox="0 0 50 50" style="enable-background:new 0 0 50 50;" xml:space="preserve">
<style type="text/css">
	.st0{fill:#ED3366;}
	.st1{fill:#252158;}
	.st2{fill:#41C3F1;}
</style>
<g>
	<g>
		<g>
			<g>
				<path class="st0" d="M21.9,34.6c-9,0-9.7-9.6-9.7-9.7c0-4.3,3.5-9,9.3-9.6c0.4,0,0.8,0,1.2,0l2.6-11.1l-1.8-0.5
					c-0.3-0.1-0.6-0.1-0.9-0.2h-0.1c-0.3,0-0.6,0-0.9,0C8.4,4.1,0.5,14.8,0.5,24.9c0,3.3,1.2,8.5,4.6,13.1c2.8,3.8,8,8.4,16.9,8.4
					h0.2l-0.1-2l1.1,0.1l1.2-9.8l-2.1-0.1L21.9,34.6z"/>
				<g>
					<g>
						<path class="st1" d="M47.3,24.9V25C47.3,25,47.3,25,47.3,24.9L47.3,24.9z"/>
						<polygon class="st1" points="49.3,25.3 48.3,25.1 46.3,25 45.3,25.1 45.3,25 45.3,24.8 45.3,24.8 45.3,24.8 46.8,24.9 
							47.3,24.9 49.3,24.8 49.3,25.1 						"/>
					</g>
					<path class="st1" d="M48.5,22.9h-9.1L38.5,22L37,23.6l-1.3,1.3l0,0c-1.4,1.5-3.6,3.6-6.8,6.7c-3.2,2.9-6.9,3-6.9,3h-0.1l0,0
						l-1.6-0.1l-0.9,7.8l0,0l-0.3,2.8l-0.1,1c0.7,0.1,1.3,0.1,1.8,0.2c0.2,0,0.4,0,0.6,0h0.5H22c1.3,0,8.6-0.3,14.9-6.1l0.1-0.1
						C47.6,30,48.3,28.4,48.8,27.4c0.1-0.2,0.1-0.4,0.2-0.6c0-0.1,0.1-0.2,0.1-0.3l0,0c0-0.2,0.1-0.3,0.1-0.5v-0.2
						c0-0.2,0.1-0.5,0.1-0.6V25C49.4,24.6,48.8,23.8,48.5,22.9z"/>
				</g>
				<path class="st2" d="M49.3,24.8c0-0.2,0-0.4-0.1-0.5V24l-3.9,0.7v-0.1c0,0,0,0,0-0.1l3.8-1l0,0l0,0c0-0.1-0.1-0.2-0.1-0.3l0,0
					l0,0l0,0l0,0c-0.1-0.2-0.1-0.4-0.2-0.5c-0.5-1-1.2-2.7-11.7-12.8L37,9.8c-5.4-5-11.7-5.9-14-6c-0.5-0.1-1-0.1-1.5,0l-3,12.2
					c0.9-0.4,1.7-0.6,2.4-0.7c0.3,0,0.6-0.1,0.9-0.1l0,0c0,0,0,0,0.1,0l0,0c0.1,0,0.2,0,0.3,0c0,0,3.8,0.1,6.9,2.9
					c3.2,3,5.3,5.2,6.7,6.6h9.7h2c0,0,0,0,0-0.1c0,0,0,0,0,0.1h2l0,0C49.3,24.8,49.3,24.8,49.3,24.8z"/>
			</g>
			<path class="st2" d="M45.3,24.5v0.1l3.9-0.7v-0.1c0-0.1,0-0.1,0-0.2s0-0.2-0.1-0.3L45.3,24.5C45.3,24.4,45.3,24.4,45.3,24.5z
				 M47.3,24.3c0-0.1,0-0.2-0.1-0.4C47.2,24,47.2,24.1,47.3,24.3z"/>
		</g>
	</g>
</g>
</svg>
