<svg width="141" height="141" viewBox="0 0 141 141" fill="none" xmlns="http://www.w3.org/2000/svg">
<circle cx="70.5" cy="70.5" r="70.5" fill="#50E671"/>
<path d="M95.5156 45.1719C88.9687 38.6094 80.25 35 70.9844 35C51.8594 35 36.2969 50.5625 36.2969 69.6875C36.2969 75.7969 37.8906 81.7656 40.9219 87.0312L36 105L54.3906 100.172C59.4531 102.938 65.1563 104.391 70.9688 104.391H70.9844C90.0937 104.391 106 88.8281 106 69.7031C106 60.4375 102.062 51.7344 95.5156 45.1719ZM70.9844 98.5469C65.7969 98.5469 60.7187 97.1562 56.2969 94.5312L55.25 93.9062L44.3438 96.7656L47.25 86.125L46.5625 85.0313C43.6719 80.4375 42.1563 75.1406 42.1563 69.6875C42.1563 53.7969 55.0937 40.8594 71 40.8594C78.7031 40.8594 85.9375 43.8594 91.375 49.3125C96.8125 54.7656 100.156 62 100.141 69.7031C100.141 85.6094 86.875 98.5469 70.9844 98.5469ZM86.7969 76.9531C85.9375 76.5156 81.6719 74.4219 80.875 74.1406C80.0781 73.8438 79.5 73.7031 78.9219 74.5781C78.3438 75.4531 76.6875 77.3906 76.1719 77.9844C75.6719 78.5625 75.1563 78.6406 74.2969 78.2031C69.2031 75.6563 65.8594 73.6563 62.5 67.8906C61.6094 66.3594 63.3906 66.4687 65.0469 63.1562C65.3281 62.5781 65.1875 62.0781 64.9687 61.6406C64.75 61.2031 63.0156 56.9375 62.2969 55.2031C61.5938 53.5156 60.875 53.75 60.3438 53.7188C59.8438 53.6875 59.2656 53.6875 58.6875 53.6875C58.1094 53.6875 57.1719 53.9062 56.375 54.7656C55.5781 55.6406 53.3438 57.7344 53.3438 62C53.3438 66.2656 56.4531 70.3906 56.875 70.9687C57.3125 71.5469 62.9844 80.2969 71.6875 84.0625C77.1875 86.4375 79.3437 86.6406 82.0938 86.2344C83.7656 85.9844 87.2187 84.1406 87.9375 82.1094C88.6562 80.0781 88.6563 78.3438 88.4375 77.9844C88.2344 77.5938 87.6563 77.375 86.7969 76.9531Z" fill="white"/>
</svg>
