<svg width="43" height="43" viewBox="0 0 43 43" fill="none" xmlns="http://www.w3.org/2000/svg">
<circle cx="21.5" cy="21.5" r="21.5" fill="white" fill-opacity="0.53"/>
<path d="M18.1659 15.9387C18.1659 14.3271 19.4614 13 21.1046 13C22.7477 13 24.0432 14.3271 24.0432 15.9387C24.0432 17.5502 22.7161 18.8773 21.1046 18.8773C19.4614 18.9089 18.1659 17.5818 18.1659 15.9387ZM21.1046 20.0149C20.8202 20.0149 18.2607 19.9517 17.0916 22.0056C15.954 24.0279 17.1548 27.8513 17.6919 29.368C17.8499 29.7472 18.1975 30 18.6083 30H23.5693C23.98 30 24.3276 29.7472 24.4856 29.368C25.0228 27.8513 26.2235 24.0279 25.086 22.0056C23.9484 19.9201 21.389 20.0149 21.1046 20.0149Z" fill="#0B00BB"/>
<path d="M27.6455 18.9405C29.0358 18.9405 30.1417 17.8346 30.1417 16.4442C30.1417 15.0539 29.0042 13.9479 27.6455 13.9479C26.2551 13.9479 25.1492 15.0539 25.1492 16.4442C25.1492 17.8346 26.2551 18.9405 27.6455 18.9405Z" fill="#03BBFF"/>
<path d="M27.6455 20.1412C26.9503 20.1412 26.2552 20.2676 25.6548 20.5836C25.876 20.8364 26.0656 21.1208 26.2236 21.4052C27.2663 23.3011 26.7923 26.1134 26.2552 28.1357H30.1734C30.1734 28.1357 32.0061 23.8067 30.8685 21.7528C29.9206 20.078 27.8667 20.1412 27.6455 20.1412Z" fill="#03BBFF"/>
<path d="M14.5637 13.9479C13.1733 13.9479 12.0674 15.0539 12.0674 16.4442C12.0674 17.8346 13.1733 18.9405 14.5637 18.9405C15.954 18.9405 17.0599 17.8346 17.0599 16.4442C17.0599 15.0855 15.954 13.9479 14.5637 13.9479Z" fill="#03BBFF"/>
<path d="M14.5638 20.1412C14.3426 20.1412 12.2887 20.078 11.3723 21.7528C10.2348 23.8067 12.0675 28.1673 12.0675 28.1673H15.9857C15.417 26.145 14.9746 23.3327 16.0173 21.4368C16.1753 21.1524 16.3649 20.868 16.5861 20.6152C15.9541 20.2992 15.259 20.1412 14.5638 20.1412Z" fill="#03BBFF"/>
</svg>
