<?xml version="1.0" encoding="utf-8"?>
<!-- Generator: Adobe Illustrator 23.0.1, SVG Export Plug-In . SVG Version: 6.00 Build 0)  -->
<svg version="1.1" id="Layer_1" xmlns="http://www.w3.org/2000/svg" xmlns:xlink="http://www.w3.org/1999/xlink" x="0px" y="0px"
	 viewBox="0 0 274.2 53.8" style="enable-background:new 0 0 274.2 53.8;" xml:space="preserve">
<style type="text/css">
	.st0{fill:#FFFFFF;}
	.st1{fill:#3D3990;}
	.st2{fill:#41C3F1;}
	.st3{fill:#ED3366;}
</style>
<g>
	<g>
		<g>
			<g>
				<path class="st0" d="M200.6,13.9c-7.8,0-13.4,5.6-13.4,13.2c0,7.6,5.7,13.2,13.4,13.2c3.8,0,7.1-1.3,9.5-3.6l-5.2-5.3
					c-0.9,1.3-2.4,2.1-4.3,2.1c-2.7,0-4.5-1.5-5-4.3h18.4c0.1-0.8,0.2-1.5,0.2-2.3l0,0C214.1,19.5,208.6,13.9,200.6,13.9z
					 M195.7,24.3c0.7-2.5,2.4-3.8,4.9-3.8c2.6,0,4.4,1.3,5.1,3.8H195.7z"/>
				<path class="st0" d="M72.7,32.6c-3,0-5.1-2.3-5.1-5.5c0-3.2,2.1-5.5,5.1-5.5c2.1,0,4,1.2,4.7,3.1l7-4.1
					c-2.1-4.1-6.4-6.7-11.7-6.7c-8,0-13.7,5.4-13.7,13.1s5.7,13.2,13.6,13.2l0,0c5.3,0,9.7-2.7,11.9-6.9l-7.1-4.1
					C76.7,31.2,74.9,32.6,72.7,32.6z"/>
				<path class="st0" d="M86.2,27c0-7.7,5.8-13.2,13.9-13.2c8,0,13.9,5.5,13.9,13.2c0,7.6-5.8,13.2-13.9,13.2
					C92,40.2,86.2,34.7,86.2,27z M100.1,32.5c3.1,0,5.3-2.3,5.3-5.5c0-3.2-2.2-5.5-5.3-5.5c-3.1,0-5.3,2.3-5.3,5.5
					C94.7,30.3,97,32.5,100.1,32.5L100.1,32.5z"/>
				<path class="st0" d="M140.1,24.3v15.1h-8.5V25.5c0-2.9-1.1-4.3-3.2-4.3c-2.7,0-4.2,1.9-4.2,5v13.2h-8.5V14.7h6l1.2,0
					c3-0.3,4.6-0.7,7.8-0.7C136.4,13.9,140.1,18,140.1,24.3z"/>
				<path class="st0" d="M185.4,14.5v7.8h-3.3c-3,0-4.3,1.3-4.3,4.5v12.6h-8.5v-19c0-3.2,2.6-5.7,5.7-5.7l0,0l1.3,0
					c2.2,0,3.9-0.1,6.8-0.1H185.4z"/>
				<path class="st0" d="M243.6,14.6v24.7H237l-0.7-1.7c-2,1.6-4.6,2.6-7.5,2.6c-7.6,0-13-5.5-13-13.2c0-7.7,5.4-13.1,13-13.1
					c2.9,0,5,0.6,7.6,0.7l0.9,0L243.6,14.6z M235.5,27c0-3.2-2.3-5.6-5.5-5.6c-3.2,0-5.5,2.4-5.5,5.6c0,3.2,2.3,5.6,5.5,5.6
					C233.2,32.7,235.5,30.2,235.5,27z"/>
				<path class="st0" d="M274.2,27c0,7.7-5.4,13.2-13,13.2c-2.2,0-4.3-0.6-6-1.6v9.7h-8.4V14.7h5.8l1.1,0c2.9-0.1,4.6-0.8,7.6-0.8
					C268.8,13.9,274.2,19.3,274.2,27z M265.6,27c0-3.2-2.3-5.7-5.5-5.7c-3.2,0-5.5,2.4-5.5,5.7s2.3,5.7,5.5,5.7
					C263.3,32.7,265.6,30.3,265.6,27z"/>
				<path class="st0" d="M155.6,32.6c-3,0-5.1-2.3-5.1-5.5c0-3.2,2.1-5.5,5.1-5.5c2.1,0,4,1.2,4.7,3.1l7-4.1
					c-2.1-4.1-6.4-6.7-11.7-6.7c-8,0-13.7,5.4-13.7,13.1s5.7,13.2,13.6,13.2l0,0c5.3,0,9.7-2.7,11.9-6.9l-7.1-4.1
					C159.6,31.2,157.8,32.6,155.6,32.6z"/>
			</g>
		</g>
		<polygon class="st1" points="38.1,28.4 38.1,28.3 38.1,28.4 		"/>
		<path class="st1" d="M38,27.5c0,0,0-0.1,0-0.1h0C38,27.4,38,27.5,38,27.5C38,27.5,38,27.5,38,27.5z"/>
		<path class="st1" d="M38,27.7C38,27.7,38,27.7,38,27.7L38,27.7L38,27.7z"/>
		<path class="st2" d="M38.1,28.3L38.1,28.3C38.1,28.3,38.1,28.3,38.1,28.3L38.1,28.3L38.1,28.3z"/>
		<path class="st2" d="M38,27.6C38,27.6,38,27.6,38,27.6C38,27.6,38,27.6,38,27.6L38,27.6z"/>
		<polygon class="st2" points="36.8,28.3 36.8,28.3 36.9,28.3 		"/>
		<path class="st2" d="M36.9,28.3C36.9,28.3,36.9,28.3,36.9,28.3C36.9,28.3,36.9,28.3,36.9,28.3L36.9,28.3
			C36.9,28.3,36.9,28.3,36.9,28.3z"/>
		<path class="st2" d="M36.9,28.2L36.9,28.2C36.9,28.2,36.9,28.2,36.9,28.2C36.9,28.2,36.9,28.2,36.9,28.2z"/>
	</g>
	<g>
		<g>
			<g>
				<path class="st3" d="M21.4,36.6c-9,0-9.7-9.6-9.7-9.7c0-4.3,3.5-9,9.3-9.6c0.4,0,0.8,0,1.2,0l2.6-11.1L23,5.7
					c-0.3-0.1-0.6-0.1-0.9-0.2l-0.1,0c-0.3,0-0.6,0-0.9,0C7.9,6.1,0,16.8,0,26.9c0,3.3,1.2,8.5,4.6,13.1c2.8,3.8,8,8.4,16.9,8.4
					l0.2,0l-0.1-2l1.1,0.1l1.2-9.8l-2.1-0.1L21.4,36.6z"/>
				<g>
					<g>
						<path class="st0" d="M46.8,26.9c0,0,0,0.1,0,0.1C46.8,27,46.8,27,46.8,26.9C46.8,26.9,46.8,26.9,46.8,26.9z"/>
						<polygon class="st0" points="48.8,27.3 47.8,27.1 45.8,27 44.8,27.1 44.8,27 44.8,26.8 44.8,26.8 44.8,26.7 46.3,26.9 
							46.8,26.9 48.8,26.7 48.8,27.1 						"/>
					</g>
					<path class="st0" d="M48,24.9h-9.1L38,24l-1.5,1.6l-1.3,1.3l0,0c-1.4,1.5-3.6,3.6-6.8,6.7c-3.2,2.9-6.9,3-6.9,3l-0.1,0l0,0
						l-1.6-0.1l-0.9,7.8v0l-0.3,2.8l-0.1,1c0.7,0.1,1.3,0.1,1.8,0.2c0.2,0,0.4,0,0.6,0l0.5,0c0,0,0.1,0,0.1,0
						c1.3,0,8.6-0.3,14.9-6.1l0.1-0.1C47.1,32,47.8,30.4,48.3,29.4c0.1-0.2,0.1-0.4,0.2-0.6c0-0.1,0.1-0.2,0.1-0.3l0,0
						c0-0.2,0.1-0.3,0.1-0.5l0-0.2c0-0.2,0.1-0.5,0.1-0.6l0-0.2C48.9,26.6,48.3,25.7,48,24.9z"/>
				</g>
				<path class="st2" d="M48.8,26.7c0-0.2,0-0.4-0.1-0.5l0-0.2l-3.9,0.7c0,0,0-0.1,0-0.1c0,0,0,0,0-0.1l3.8-1c0,0,0,0,0,0h0
					c0-0.1-0.1-0.2-0.1-0.3h0c0,0,0,0,0,0c0,0,0,0,0,0l0,0c-0.1-0.2-0.1-0.4-0.2-0.5c-0.5-1-1.2-2.7-11.7-12.8l-0.1-0.1
					c-5.4-5-11.7-5.9-14-6c-0.5-0.1-1-0.1-1.5,0L18,18c0.9-0.4,1.7-0.6,2.4-0.7c0.3,0,0.6-0.1,0.9-0.1l0,0c0,0,0,0,0.1,0l0,0
					c0.1,0,0.2,0,0.3,0c0,0,3.8,0.1,6.9,2.9c3.2,3,5.3,5.2,6.7,6.6h9.7h2c0,0,0,0,0-0.1c0,0,0,0,0,0.1h2h0
					C48.8,26.8,48.8,26.7,48.8,26.7z"/>
			</g>
			<path class="st2" d="M44.8,26.5c0,0,0,0.1,0,0.1l3.9-0.7l0-0.1c0-0.1,0-0.1,0-0.2c0-0.1,0-0.2-0.1-0.3L44.8,26.5
				C44.8,26.4,44.8,26.4,44.8,26.5z M46.8,26.3c0-0.1,0-0.2-0.1-0.4C46.7,26,46.7,26.1,46.8,26.3z"/>
		</g>
	</g>
</g>
</svg>
