<svg width="80" height="89" viewBox="0 0 80 89" fill="2#265da" xmlns="http://www.w3.org/2000/svg">
<path d="M71.1111 0H13.3333C7.97333 0 0 3.55111 0 13.3333V75.5555C0 85.3378 7.97333 88.8889 13.3333 88.8889H80V80H13.3867C11.3333 79.9467 8.88889 79.1378 8.88889 75.5555C8.88889 75.1067 8.92889 74.7067 8.99556 74.3422C9.49333 71.7822 11.5911 71.1555 13.3867 71.1111H80V8.88889C80 6.53141 79.0635 4.27048 77.3965 2.60349C75.7295 0.936505 73.4686 0 71.1111 0ZM71.1111 40L62.2222 35.5556L53.3333 40V8.88889H71.1111V40Z" fill="#1C80AE"/>
</svg>
