<svg width="90" height="91" viewBox="0 0 90 91" fill="none" xmlns="http://www.w3.org/2000/svg">
<path d="M90 86.75C90 87.7656 89.7217 88.6445 89.165 89.3867C88.6084 90.1289 87.9492 90.5 87.1875 90.5C86.4258 90.5 85.7666 90.1289 85.21 89.3867C84.6533 88.6445 84.375 87.7656 84.375 86.75V37.4141L53.3496 58.1562C51.0059 59.7188 48.2227 60.5 45 60.5C41.7773 60.5 38.9941 59.7188 36.6504 58.1562L3.42773 36.0078C1.14258 34.4453 0 32.5898 0 30.4414C0 28.293 1.14258 26.4766 3.42773 24.9922L36.6504 2.84375C38.9941 1.28125 41.7773 0.5 45 0.5C48.2227 0.5 51.0059 1.28125 53.3496 2.84375L86.5723 24.9922C88.5645 26.3203 89.6777 27.9609 89.9121 29.9141C89.9707 29.9922 90 30.1484 90 30.3828V86.75ZM56.1621 65.6562L73.125 54.2891V70.8125C73.125 74.1719 70.3857 77.043 64.9072 79.4258C59.4287 81.8086 52.793 83 45 83C37.207 83 30.5713 81.8086 25.0928 79.4258C19.6143 77.043 16.875 74.1719 16.875 70.8125V54.2891L33.8379 65.6562C36.1816 67.2188 39.9023 68 45 68C50.0977 68 53.8184 67.2188 56.1621 65.6562Z" fill="#2265da"/>
</svg>
