<svg width="90" height="90" viewBox="0 0 90 90" fill="none" xmlns="http://www.w3.org/2000/svg">
<path d="M35.3812 0C28.3278 0 22.6107 5.72289 22.6107 12.7832C22.6107 16.2744 24.0075 19.4407 26.2739 21.7478H7.50001e-05V43.053C2.34188 40.3449 5.80426 38.6276 9.66324 38.6276C16.7166 38.6276 22.4337 44.3504 22.4337 51.4106C22.4337 58.4709 16.7166 64.1936 9.66317 64.1936C5.80426 64.1936 2.34188 62.4763 0 59.7682V90.0002H27.6C24.6815 87.6573 22.8126 84.0602 22.8126 80.024C22.8126 72.9635 28.5298 67.2409 35.5832 67.2409C42.6365 67.2409 48.3536 72.9638 48.3536 80.0239C48.3536 84.06 46.4848 87.6571 43.5662 90.0002H68.1852V63.296C70.4973 65.6169 73.6962 67.0513 77.2295 67.0513C84.2829 67.0513 90 61.3284 90 54.2682C90 47.2076 84.2827 41.4851 77.2295 41.4851C73.6963 41.4851 70.4973 42.9194 68.1852 45.2403V21.7477H44.4886C46.7557 19.4405 48.1518 16.2749 48.1518 12.7831C48.1518 5.72281 42.4345 0 35.3812 0Z" fill="#2265da"/>
</svg>
