<svg width="1288" height="744" viewBox="0 0 1288 744" fill="none" xmlns="http://www.w3.org/2000/svg">
<rect width="1288" height="744" rx="74" fill="#F8F8FF"/>
<path d="M781.873 323.774V419.682C781.879 422.128 781.183 424.523 779.869 426.586C778.552 428.649 776.674 430.292 774.455 431.32C772.761 432.063 770.934 432.457 769.085 432.47C766.096 432.476 763.2 431.435 760.902 429.529L703.483 381.575C700.553 379.146 698.856 375.536 698.856 371.728C698.856 367.92 700.553 364.31 703.483 361.88L761.028 313.926C763.532 311.841 766.741 310.79 769.995 310.988C773.249 311.188 776.302 312.623 778.534 314.999C780.766 317.375 782.005 320.514 782 323.774L781.873 323.774Z" fill="#D2D2F7"/>
<path d="M652.932 295.001H537.842C529.397 295.001 521.3 298.357 515.327 304.327C509.357 310.3 506.001 318.397 506.001 326.843V416.359C505.934 424.826 509.239 432.969 515.19 438.993C521.142 445.016 529.248 448.42 537.714 448.455H652.804C661.26 448.455 669.374 445.104 675.365 439.137C681.357 433.169 684.74 425.069 684.774 416.613V327.096C684.806 318.619 681.472 310.473 675.499 304.454C669.529 298.433 661.41 295.035 652.933 295L652.932 295.001ZM646.539 346.153C643.146 346.153 639.894 344.804 637.497 342.407C635.097 340.009 633.75 336.755 633.75 333.365C633.75 329.974 635.096 326.72 637.497 324.323C639.895 321.925 643.146 320.576 646.539 320.576C649.929 320.576 653.181 321.925 655.581 324.323C657.979 326.72 659.325 329.974 659.325 333.365C659.325 336.755 657.979 340.009 655.581 342.407C653.181 344.804 649.929 346.153 646.539 346.153Z" fill="#C1C1E4"/>
</svg>
